<?xml version="1.0" encoding="UTF-8" standalone="no"?>
<!-- Creator: Corel DESIGNER -->

<svg
   xmlns:dc="http://purl.org/dc/elements/1.1/"
   xmlns:cc="http://creativecommons.org/ns#"
   xmlns:rdf="http://www.w3.org/1999/02/22-rdf-syntax-ns#"
   xmlns:svg="http://www.w3.org/2000/svg"
   xmlns="http://www.w3.org/2000/svg"
   xmlns:sodipodi="http://sodipodi.sourceforge.net/DTD/sodipodi-0.dtd"
   xmlns:inkscape="http://www.inkscape.org/namespaces/inkscape"
   xml:space="preserve"
   width="406.90283"
   height="461.39706"
   style="fill-rule:evenodd"
   viewBox="0 0 10.157185 8.8596026"
   id="svg2"
   sodipodi:version="0.32"
   inkscape:version="0.92.0 r15299"
   sodipodi:docname="size_guide.svg"
   inkscape:output_extension="org.inkscape.output.svg.inkscape"
   version="1.0"><metadata
     id="metadata144"><rdf:RDF><cc:Work
         rdf:about=""><dc:format>image/svg+xml</dc:format><dc:type
           rdf:resource="http://purl.org/dc/dcmitype/StillImage" /><dc:title></dc:title></cc:Work></rdf:RDF></metadata><sodipodi:namedview
     inkscape:window-height="1137"
     inkscape:window-width="1920"
     inkscape:pageshadow="2"
     inkscape:pageopacity="0.0"
     guidetolerance="10.0"
     gridtolerance="10.0"
     objecttolerance="10.0"
     borderopacity="1.0"
     bordercolor="#666666"
     pagecolor="#ffffff"
     id="base"
     showgrid="false"
     width="300px"
     borderlayer="true"
     inkscape:zoom="2.224095"
     inkscape:cx="220.46087"
     inkscape:cy="298.68737"
     inkscape:window-x="1912"
     inkscape:window-y="-7"
     inkscape:current-layer="flowRoot3791"
     fit-margin-top="0"
     fit-margin-left="0"
     fit-margin-right="0"
     fit-margin-bottom="0"
     inkscape:window-maximized="1" /><defs
     id="defs4"><style
       type="text/css"
       id="style6">
   
    .str2 {stroke:black;stroke-width:0.00562512;stroke-linecap:round}
    .str7 {stroke:black;stroke-width:0.0058717;stroke-linecap:round}
    .str1 {stroke:black;stroke-width:0.00920054;stroke-linecap:round}
    .str4 {stroke:black;stroke-width:0.00959738;stroke-linecap:round}
    .str3 {stroke:white;stroke-width:0.0147332;stroke-linecap:round}
    .str6 {stroke:black;stroke-width:0.0153574;stroke-linecap:round}
    .str8 {stroke:white;stroke-width:0.0153574;stroke-linecap:round}
    .str0 {stroke:black;stroke-width:0.0221537;stroke-linecap:round}
    .str5 {stroke:black;stroke-width:0.0230938;stroke-linecap:round}
    .fil0 {fill:none;fill-rule:nonzero}
   
  </style><metadata
       id="CorelCorpID_0Corel-Layer" /></defs><g
     inkscape:groupmode="layer"
     id="layer4"
     inkscape:label="Layer 2"
     transform="translate(2.657811e-4,-0.08852969)"><path
       style="fill:none;stroke:#000000;stroke-width:0.02496219px;stroke-linecap:butt;stroke-linejoin:miter;stroke-opacity:1"
       d="M 0.01410657,9.9010851 1.8701809,-1.2585038 6.1120506,-1.242909 7.7713131,9.8236961 5.830534,10.1104 4.1326086,0.94164852 2.0840196,10.232272 Z"
       id="path3703"
       inkscape:connector-curvature="0" /><path
       style="fill:none;stroke:#000000;stroke-width:0.02505141px;stroke-linecap:butt;stroke-linejoin:miter;stroke-opacity:1"
       d="M 1.8399121,-0.9791978 6.1440679,-0.9947906"
       id="path3705"
       inkscape:connector-curvature="0" /><flowRoot
       xml:space="preserve"
       id="flowRoot3741"
       style="font-style:normal;font-weight:normal;font-size:40px;line-height:25px;font-family:sans-serif;letter-spacing:0px;word-spacing:0px;fill:#000000;fill-opacity:1;stroke:none"
       transform="matrix(0.02496219,0,0,0.02496219,-2.657811e-4,-1.2404091)"><flowRegion
         id="flowRegion3743"><rect
           id="rect3745"
           width="131.19431"
           height="126.82117"
           x="271.13492"
           y="4.71591" /></flowRegion><flowPara
         id="flowPara3747"></flowPara></flowRoot><flowRoot
       xml:space="preserve"
       id="flowRoot3773"
       style="font-style:normal;font-weight:normal;font-size:40px;line-height:30.59999758px;font-family:sans-serif;letter-spacing:0px;word-spacing:0px;fill:#000000;fill-opacity:1;stroke:none;"
       transform="matrix(0.02496219,0,0,0.02496219,-2.657811e-4,-1.2404091)"><flowRegion
         id="flowRegion3775"
         style="line-height:30.59999758px;"><rect
           id="rect3777"
           width="136.19218"
           height="149.31161"
           x="267.38651"
           y="4.71591"
           style="line-height:30.59999758px;" /></flowRegion><flowPara
         id="flowPara3779"
         style="font-size:13333.332277px">Size</flowPara><flowPara
         id="flowPara3781"
         style="font-size:13333.332277px">Guide</flowPara></flowRoot><flowRoot
       xml:space="preserve"
       id="flowRoot3783"
       style="fill:black;fill-opacity:1;stroke:none;font-family:sans-serif;font-style:normal;font-weight:normal;font-size:40px;line-height:12px;letter-spacing:0px;word-spacing:0px"><flowRegion
         id="flowRegion3785"><rect
           id="rect3787"
           width="141.19006"
           height="144.31375"
           x="263.63809"
           y="0.96750122" /></flowRegion><flowPara
         id="flowPara3789"></flowPara></flowRoot><g
       aria-label="Size Guide
  Waist
  Inseam
  Front Rise
  Thigh
  Knee
  Leg Opening"
       transform="matrix(0.02496219,0,0,0.02496219,1.0289876,-1.1156511)"
       style="font-style:normal;font-weight:normal;font-size:16px;line-height:12px;font-family:sans-serif;letter-spacing:0px;word-spacing:0px;fill:#000000;fill-opacity:1;stroke:none"
       id="flowRoot3791"><path
         d="m 280.52539,9.4937694 q 0,0.6796876 -0.32031,1.3437496 -0.3125,0.664063 -0.88281,1.125 -0.625,0.5 -1.46094,0.78125 -0.82813,0.28125 -2,0.28125 -1.25781,0 -2.26563,-0.234375 -1,-0.234375 -2.03906,-0.695312 v -1.9375 h 0.10938 q 0.88281,0.734375 2.03906,1.132812 1.15625,0.398438 2.17187,0.398438 1.4375,0 2.23438,-0.539063 0.80469,-0.539062 0.80469,-1.4374996 0,-0.7734375 -0.38282,-1.140625 -0.375,-0.3671875 -1.14843,-0.5703125 -0.58594,-0.15625 -1.27344,-0.2578125 -0.67969,-0.1015625 -1.44531,-0.2578125 -1.54688,-0.328125 -2.29688,-1.1171875 -0.74219,-0.796875 -0.74219,-2.0703125 0,-1.4609375 1.23438,-2.390625 1.23437,-0.93749996 3.13281,-0.93749996 1.22656,0 2.25,0.23437496 1.02344,0.234375 1.8125,0.578125 v 1.828125 h -0.10937 q -0.66407,-0.5625 -1.75,-0.9296875 -1.07813,-0.375 -2.21094,-0.375 -1.24219,0 -2,0.515625 -0.75,0.515625 -0.75,1.328125 0,0.7265625 0.375,1.140625 0.375,0.4140625 1.32031,0.6328125 0.5,0.109375 1.42188,0.265625 0.92187,0.15625 1.5625,0.3203125 1.29687,0.34375 1.95312,1.0390625 0.65625,0.6953125 0.65625,1.9453125 z"
         style=""
         id="path4703" /><path
         d="m 284.4707,2.6265819 h -1.65625 V 1.1031444 h 1.65625 z m -0.0937,10.1875001 H 282.9082 V 4.0875194 h 1.46875 z"
         style=""
         id="path4705" /><path
         d="m 293.56445,12.814082 h -7.04687 v -1.085938 l 5.08594,-6.4140621 h -4.97657 V 4.0875194 h 6.80469 v 1.046875 l -5.10937,6.4374996 h 5.24218 z"
         style=""
         id="path4707" /><path
         d="m 302.85352,8.6031444 h -6.42969 q 0,0.8046875 0.24219,1.4062496 0.24218,0.59375 0.66406,0.976563 0.40625,0.375 0.96094,0.5625 0.5625,0.1875 1.23437,0.1875 0.89063,0 1.78906,-0.351563 0.90625,-0.359375 1.28907,-0.703125 h 0.0781 v 1.601563 q -0.74219,0.3125 -1.51562,0.523437 -0.77344,0.210938 -1.625,0.210938 -2.17188,0 -3.39063,-1.171875 -1.21875,-1.179688 -1.21875,-3.3437501 0,-2.140625 1.16406,-3.3984375 1.17188,-1.2578125 3.07813,-1.2578125 1.76562,0 2.71875,1.03125 0.96094,1.03125 0.96094,2.9296875 z m -1.42969,-1.125 q -0.008,-1.15625 -0.58594,-1.7890625 -0.57031,-0.6328125 -1.74219,-0.6328125 -1.17968,0 -1.88281,0.6953125 -0.69531,0.6953125 -0.78906,1.7265625 z"
         style=""
         id="path4709" /><path
         d="m 320.52539,11.954707 q -0.95312,0.4375 -2.08594,0.765625 -1.125,0.320312 -2.17968,0.320312 -1.35938,0 -2.49219,-0.375 -1.13281,-0.375 -1.92969,-1.125 -0.80469,-0.757812 -1.24219,-1.8906246 -0.4375,-1.140625 -0.4375,-2.6640625 0,-2.7890625 1.625,-4.3984375 1.63282,-1.61718746 4.47657,-1.61718746 0.99218,0 2.02343,0.24218746 1.03907,0.234375 2.23438,0.8046875 v 1.8359375 h -0.14063 q -0.24218,-0.1875 -0.70312,-0.4921875 -0.46094,-0.3046875 -0.90625,-0.5078125 -0.53906,-0.2421875 -1.22656,-0.3984375 -0.67969,-0.1640625 -1.54688,-0.1640625 -1.95312,0 -3.09375,1.2578125 -1.13281,1.25 -1.13281,3.390625 0,2.2578125 1.1875,3.5156251 1.1875,1.25 3.23437,1.25 0.75,0 1.49219,-0.148438 0.75,-0.148437 1.3125,-0.382812 V 8.3218944 h -3.11719 v -1.359375 h 4.64844 z"
         style=""
         id="path4711" /><path
         d="m 330.3457,12.814082 h -1.46875 v -0.96875 q -0.74218,0.585937 -1.42187,0.898437 -0.67969,0.3125 -1.5,0.3125 -1.375,0 -2.14063,-0.835937 -0.76562,-0.84375 -0.76562,-2.4687501 V 4.0875194 h 1.46875 v 4.96875 q 0,0.6640625 0.0625,1.1406246 0.0625,0.46875 0.26562,0.804688 0.21094,0.34375 0.54688,0.5 0.33594,0.15625 0.97656,0.15625 0.57031,0 1.24219,-0.296875 0.67969,-0.296875 1.26562,-0.757813 V 4.0875194 h 1.46875 z"
         style=""
         id="path4713" /><path
         d="M 334.81445,2.6265819 H 333.1582 V 1.1031444 h 1.65625 z m -0.0937,10.1875001 h -1.46875 V 4.0875194 h 1.46875 z"
         style=""
         id="path4715" /><path
         d="m 344.6582,12.814082 h -1.46875 v -0.914063 q -0.63281,0.546875 -1.32031,0.851563 -0.6875,0.304687 -1.49219,0.304687 -1.5625,0 -2.48437,-1.203125 -0.91406,-1.203125 -0.91406,-3.3359371 0,-1.109375 0.3125,-1.9765625 0.32031,-0.8671875 0.85937,-1.4765625 0.53125,-0.59375 1.23438,-0.90625 0.71093,-0.3125 1.46875,-0.3125 0.6875,0 1.21875,0.1484375 0.53125,0.140625 1.11718,0.4453125 V 0.65783194 h 1.46875 z m -1.46875,-2.148438 V 5.6578319 q -0.59375,-0.265625 -1.0625,-0.3671875 -0.46875,-0.1015625 -1.02343,-0.1015625 -1.23438,0 -1.92188,0.859375 -0.6875,0.859375 -0.6875,2.4375 0,1.5546871 0.53125,2.3671871 0.53125,0.804688 1.70313,0.804688 0.625,0 1.26562,-0.273438 0.64063,-0.28125 1.19531,-0.71875 z"
         style=""
         id="path4717" /><path
         d="m 354.85352,8.6031444 h -6.42969 q 0,0.8046875 0.24219,1.4062496 0.24218,0.59375 0.66406,0.976563 0.40625,0.375 0.96094,0.5625 0.5625,0.1875 1.23437,0.1875 0.89063,0 1.78906,-0.351563 0.90625,-0.359375 1.28907,-0.703125 h 0.0781 v 1.601563 q -0.74219,0.3125 -1.51562,0.523437 -0.77344,0.210938 -1.625,0.210938 -2.17188,0 -3.39063,-1.171875 -1.21875,-1.179688 -1.21875,-3.3437501 0,-2.140625 1.16406,-3.3984375 1.17188,-1.2578125 3.07813,-1.2578125 1.76562,0 2.71875,1.03125 0.96094,1.03125 0.96094,2.9296875 z m -1.42969,-1.125 q -0.008,-1.15625 -0.58594,-1.7890625 -0.57031,-0.6328125 -1.74219,-0.6328125 -1.17968,0 -1.88281,0.6953125 -0.69531,0.6953125 -0.78906,1.7265625 z"
         style=""
         id="path4719" /><path
         d="m 290.27344,19.940151 -2.26758,8.724609 h -1.30664 l -1.83399,-7.242187 -1.79297,7.242187 h -1.27734 l -2.30859,-8.724609 h 1.18945 l 1.83398,7.253906 1.80469,-7.253906 h 1.17774 l 1.82226,7.324218 1.82227,-7.324218 z"
         style="font-size:11.99999905px;line-height:21.99999809px;fill:#ed243f;fill-opacity:1"
         id="path4721" /><path
         d="m 296.39062,28.66476 h -1.0957 v -0.697266 q -0.14648,0.09961 -0.39844,0.28125 -0.24609,0.175781 -0.48047,0.28125 -0.27539,0.134766 -0.63281,0.222656 -0.35742,0.09375 -0.83789,0.09375 -0.88477,0 -1.5,-0.585937 -0.61523,-0.585938 -0.61523,-1.494141 0,-0.74414 0.3164,-1.201171 0.32227,-0.462891 0.91406,-0.726563 0.59766,-0.263672 1.43555,-0.357422 0.83789,-0.09375 1.79883,-0.140625 v -0.169922 q 0,-0.374999 -0.13477,-0.621093 -0.1289,-0.246094 -0.375,-0.386719 -0.23437,-0.134766 -0.5625,-0.181641 -0.32812,-0.04687 -0.68554,-0.04687 -0.4336,0 -0.9668,0.117188 -0.5332,0.111328 -1.10156,0.328125 h -0.0586 v -1.119141 q 0.32227,-0.08789 0.93164,-0.193359 0.60938,-0.105469 1.20118,-0.105469 0.6914,0 1.20117,0.117188 0.51562,0.111328 0.89062,0.386719 0.36914,0.269531 0.5625,0.697265 0.19336,0.427734 0.19336,1.060547 z m -1.0957,-1.611328 v -1.822266 q -0.50391,0.0293 -1.18945,0.08789 -0.67969,0.05859 -1.07813,0.169922 -0.47461,0.134765 -0.76758,0.421875 -0.29297,0.28125 -0.29297,0.779297 0,0.5625 0.33985,0.849609 0.33984,0.28125 1.03711,0.28125 0.58008,0 1.06054,-0.222656 0.48047,-0.228516 0.89063,-0.544922 z"
         style="font-size:11.99999905px;line-height:21.99999809px;fill:#ed243f;fill-opacity:1"
         id="path4723" /><path
         d="m 299.70703,21.024135 h -1.24219 v -1.142578 h 1.24219 z m -0.0703,7.640625 h -1.10157 v -6.544922 h 1.10157 z"
         style="font-size:11.99999905px;line-height:21.99999809px;fill:#ed243f;fill-opacity:1"
         id="path4725" /><path
         d="m 306.45703,26.778041 q 0,0.896484 -0.74414,1.470703 -0.73828,0.574219 -2.02149,0.574219 -0.72656,0 -1.33593,-0.169922 -0.60352,-0.175781 -1.01368,-0.380859 v -1.236328 h 0.0586 q 0.52148,0.392578 1.16015,0.626953 0.63868,0.228515 1.22461,0.228515 0.72657,0 1.13672,-0.234375 0.41016,-0.234375 0.41016,-0.738281 0,-0.386719 -0.22266,-0.585937 -0.22265,-0.199219 -0.85547,-0.339844 -0.23437,-0.05273 -0.61523,-0.123047 -0.375,-0.07031 -0.68555,-0.152344 -0.86133,-0.228515 -1.22461,-0.667968 -0.35742,-0.445313 -0.35742,-1.089844 0,-0.404297 0.16406,-0.761719 0.16993,-0.357422 0.50977,-0.638671 0.32812,-0.275391 0.83203,-0.433594 0.50977,-0.164063 1.13672,-0.164063 0.58594,0 1.18359,0.146485 0.60352,0.140625 1.00196,0.345703 v 1.177734 h -0.0586 q -0.42187,-0.310547 -1.02539,-0.521484 -0.60351,-0.216797 -1.18359,-0.216797 -0.60352,0 -1.01953,0.234375 -0.41602,0.228515 -0.41602,0.685547 0,0.404296 0.25195,0.609375 0.2461,0.205078 0.79688,0.333984 0.30469,0.07031 0.67969,0.140625 0.38086,0.07031 0.63281,0.128906 0.76758,0.175781 1.18359,0.603516 0.41602,0.433593 0.41602,1.148437 z"
         style="font-size:11.99999905px;line-height:21.99999809px;fill:#ed243f;fill-opacity:1"
         id="path4727" /><path
         d="m 311.4375,28.606166 q -0.31055,0.08203 -0.67969,0.134766 -0.36328,0.05273 -0.65039,0.05273 -1.00196,0 -1.52344,-0.539062 -0.52148,-0.539063 -0.52148,-1.728516 V 23.04562 h -0.74414 v -0.925782 h 0.74414 v -1.880859 h 1.10156 v 1.880859 h 2.27344 v 0.925782 h -2.27344 v 2.982421 q 0,0.515625 0.0234,0.808594 0.0234,0.287109 0.16406,0.539062 0.1289,0.234375 0.35156,0.345703 0.22852,0.105469 0.69141,0.105469 0.26953,0 0.5625,-0.07617 0.29297,-0.08203 0.42187,-0.134765 h 0.0586 z"
         style="font-size:11.99999905px;line-height:21.99999809px;fill:#ed243f;fill-opacity:1"
         id="path4729" /><path
         d="M 283.19531,50.66476 H 279.75 v -0.890625 h 1.14258 V 42.830776 H 279.75 v -0.890625 h 3.44531 v 0.890625 h -1.14258 v 6.943359 h 1.14258 z"
         style="font-size:11.99999905px;line-height:21.99999809px;fill:#3f2c63;fill-opacity:1"
         id="path4731" /><path
         d="m 290.5664,50.66476 h -1.10156 v -3.726562 q 0,-0.451172 -0.0527,-0.84375 -0.0527,-0.398438 -0.19336,-0.621094 -0.14649,-0.246094 -0.42188,-0.363281 -0.27539,-0.123047 -0.71484,-0.123047 -0.45117,0 -0.94336,0.222656 -0.49219,0.222656 -0.94336,0.568359 v 4.886719 h -1.10156 v -6.544922 h 1.10156 v 0.726563 q 0.51563,-0.427734 1.06641,-0.667969 0.55078,-0.240234 1.13086,-0.240234 1.06054,0 1.61718,0.638672 0.55664,0.638671 0.55664,1.839843 z"
         style="font-size:11.99999905px;line-height:21.99999809px;fill:#3f2c63;fill-opacity:1"
         id="path4733" /><path
         d="m 297.36328,48.778041 q 0,0.896484 -0.74414,1.470703 -0.73828,0.574219 -2.02149,0.574219 -0.72656,0 -1.33593,-0.169922 -0.60352,-0.175781 -1.01368,-0.380859 v -1.236328 h 0.0586 q 0.52148,0.392578 1.16015,0.626953 0.63868,0.228515 1.22461,0.228515 0.72657,0 1.13672,-0.234375 0.41016,-0.234375 0.41016,-0.738281 0,-0.386719 -0.22266,-0.585937 -0.22265,-0.199219 -0.85547,-0.339844 -0.23437,-0.05273 -0.61523,-0.123047 -0.375,-0.07031 -0.68555,-0.152344 -0.86133,-0.228515 -1.22461,-0.667968 -0.35742,-0.445313 -0.35742,-1.089844 0,-0.404297 0.16406,-0.761719 0.16993,-0.357422 0.50977,-0.638671 0.32812,-0.275391 0.83203,-0.433594 0.50977,-0.164063 1.13672,-0.164063 0.58594,0 1.18359,0.146485 0.60352,0.140625 1.00196,0.345703 v 1.177734 h -0.0586 q -0.42187,-0.310547 -1.02539,-0.521484 -0.60351,-0.216797 -1.18359,-0.216797 -0.60352,0 -1.01953,0.234375 -0.41602,0.228515 -0.41602,0.685547 0,0.404296 0.25195,0.609375 0.2461,0.205078 0.79688,0.333984 0.30469,0.07031 0.67969,0.140625 0.38086,0.07031 0.63281,0.128906 0.76758,0.175781 1.18359,0.603516 0.41602,0.433593 0.41602,1.148437 z"
         style="font-size:11.99999905px;line-height:21.99999809px;fill:#3f2c63;fill-opacity:1"
         id="path4735" /><path
         d="m 304.42383,47.506557 h -4.82227 q 0,0.603515 0.18164,1.054687 0.18164,0.445313 0.49805,0.732422 0.30469,0.28125 0.7207,0.421875 0.42188,0.140625 0.92578,0.140625 0.66797,0 1.3418,-0.263672 0.67969,-0.269531 0.9668,-0.527343 h 0.0586 v 1.201171 q -0.55664,0.234375 -1.13672,0.392578 -0.58008,0.158204 -1.21875,0.158204 -1.62891,0 -2.54297,-0.878907 -0.91406,-0.884765 -0.91406,-2.507812 0,-1.605469 0.87305,-2.548828 0.8789,-0.943359 2.30859,-0.943359 1.32422,0 2.03906,0.773437 0.72071,0.773438 0.72071,2.197266 z m -1.07227,-0.84375 q -0.006,-0.867187 -0.43945,-1.341797 -0.42774,-0.474609 -1.30664,-0.474609 -0.88477,0 -1.41211,0.521484 -0.52149,0.521485 -0.5918,1.294922 z"
         style="font-size:11.99999905px;line-height:21.99999809px;fill:#3f2c63;fill-opacity:1"
         id="path4737" /><path
         d="m 311.17968,50.66476 h -1.0957 v -0.697266 q -0.14648,0.09961 -0.39844,0.28125 -0.24609,0.175781 -0.48047,0.28125 -0.27539,0.134766 -0.63281,0.222656 -0.35742,0.09375 -0.83789,0.09375 -0.88476,0 -1.5,-0.585937 -0.61523,-0.585938 -0.61523,-1.494141 0,-0.74414 0.3164,-1.201171 0.32227,-0.462891 0.91407,-0.726563 0.59765,-0.263672 1.43554,-0.357422 0.83789,-0.09375 1.79883,-0.140625 v -0.169922 q 0,-0.374999 -0.13477,-0.621093 -0.1289,-0.246094 -0.375,-0.386719 -0.23437,-0.134766 -0.5625,-0.181641 -0.32812,-0.04687 -0.68554,-0.04687 -0.4336,0 -0.9668,0.117188 -0.5332,0.111328 -1.10156,0.328125 h -0.0586 v -1.119141 q 0.32227,-0.08789 0.93165,-0.193359 0.60937,-0.105469 1.20117,-0.105469 0.6914,0 1.20117,0.117188 0.51562,0.111328 0.89062,0.386719 0.36914,0.269531 0.5625,0.697265 0.19336,0.427734 0.19336,1.060547 z m -1.0957,-1.611328 v -1.822266 q -0.50391,0.0293 -1.18945,0.08789 -0.67969,0.05859 -1.07813,0.169922 -0.47461,0.134765 -0.76758,0.421875 -0.29296,0.28125 -0.29296,0.779297 0,0.5625 0.33984,0.849609 0.33984,0.28125 1.03711,0.28125 0.58008,0 1.06055,-0.222656 0.48046,-0.228516 0.89062,-0.544922 z"
         style="font-size:11.99999905px;line-height:21.99999809px;fill:#3f2c63;fill-opacity:1"
         id="path4739" /><path
         d="m 322.86328,50.66476 h -1.10157 v -3.726562 q 0,-0.421875 -0.041,-0.814453 -0.0352,-0.392579 -0.1582,-0.626954 -0.13477,-0.251953 -0.38672,-0.380859 -0.25196,-0.128906 -0.72657,-0.128906 -0.46289,0 -0.92578,0.234375 -0.46289,0.228515 -0.92578,0.585937 0.0176,0.134766 0.0293,0.316407 0.0117,0.175781 0.0117,0.351562 v 4.189453 h -1.10156 v -3.726562 q 0,-0.433594 -0.041,-0.820313 -0.0352,-0.392578 -0.1582,-0.626953 -0.13477,-0.251953 -0.38672,-0.375 -0.25196,-0.128906 -0.72656,-0.128906 -0.45118,0 -0.90821,0.222656 -0.45117,0.222656 -0.90234,0.568359 v 4.886719 h -1.10156 v -6.544922 h 1.10156 v 0.726563 q 0.51562,-0.427734 1.02539,-0.667969 0.51562,-0.240234 1.0957,-0.240234 0.66797,0 1.13086,0.28125 0.46875,0.28125 0.69727,0.779297 0.66797,-0.5625 1.21875,-0.808594 0.55078,-0.251953 1.17773,-0.251953 1.07813,0 1.58789,0.65625 0.51563,0.65039 0.51563,1.822265 z"
         style="font-size:11.99999905px;line-height:21.99999809px;fill:#3f2c63;fill-opacity:1"
         id="path4741" /><path
         d="m 285.6914,64.971401 h -4.4121 v 2.460937 h 3.79101 v 1.03125 h -3.79101 v 4.201172 h -1.16016 v -8.724609 h 5.57226 z"
         style="font-size:11.99999905px;line-height:21.99999809px;fill:#26599a;fill-opacity:1"
         id="path4743" /><path
         d="m 291.00586,67.32101 h -0.0586 q -0.24609,-0.05859 -0.48047,-0.08203 -0.22851,-0.0293 -0.54492,-0.0293 -0.50976,0 -0.98437,0.228516 -0.47461,0.222656 -0.91406,0.580078 v 4.646484 h -1.10157 v -6.544922 h 1.10157 v 0.966797 q 0.65625,-0.527343 1.15429,-0.74414 0.50391,-0.222657 1.02539,-0.222657 0.28711,0 0.41602,0.01758 0.1289,0.01172 0.38672,0.05273 z"
         style="font-size:11.99999905px;line-height:21.99999809px;fill:#26599a;fill-opacity:1"
         id="path4745" /><path
         d="m 297.63281,69.395229 q 0,1.599609 -0.82031,2.52539 -0.82031,0.925781 -2.19727,0.925781 -1.38867,0 -2.20898,-0.925781 -0.81446,-0.925781 -0.81446,-2.52539 0,-1.599609 0.81446,-2.525391 0.82031,-0.93164 2.20898,-0.93164 1.37696,0 2.19727,0.93164 0.82031,0.925782 0.82031,2.525391 z m -1.13672,0 q 0,-1.271484 -0.49805,-1.886719 -0.49804,-0.621094 -1.38281,-0.621094 -0.89648,0 -1.39453,0.621094 -0.49219,0.615235 -0.49219,1.886719 0,1.230468 0.49805,1.86914 0.49805,0.632813 1.38867,0.632813 0.87891,0 1.37696,-0.626953 0.5039,-0.632813 0.5039,-1.875 z"
         style="font-size:11.99999905px;line-height:21.99999809px;fill:#26599a;fill-opacity:1"
         id="path4747" /><path
         d="m 304.8164,72.66476 h -1.10156 v -3.726562 q 0,-0.451172 -0.0527,-0.84375 -0.0527,-0.398438 -0.19336,-0.621094 -0.14649,-0.246094 -0.42188,-0.363281 -0.27539,-0.123047 -0.71484,-0.123047 -0.45117,0 -0.94336,0.222656 -0.49219,0.222656 -0.94336,0.568359 v 4.886719 h -1.10156 v -6.544922 h 1.10156 v 0.726563 q 0.51563,-0.427734 1.06641,-0.667969 0.55078,-0.240234 1.13086,-0.240234 1.06054,0 1.61718,0.638672 0.55664,0.638671 0.55664,1.839843 z"
         style="font-size:11.99999905px;line-height:21.99999809px;fill:#26599a;fill-opacity:1"
         id="path4749" /><path
         d="m 310.33593,72.606166 q -0.31054,0.08203 -0.67968,0.134766 -0.36329,0.05273 -0.65039,0.05273 -1.00196,0 -1.52344,-0.539062 -0.52149,-0.539063 -0.52149,-1.728516 V 67.04562 h -0.74414 v -0.925782 h 0.74414 v -1.880859 h 1.10157 v 1.880859 h 2.27343 v 0.925782 h -2.27343 v 2.982421 q 0,0.515625 0.0234,0.808594 0.0234,0.287109 0.16407,0.539062 0.1289,0.234375 0.35156,0.345703 0.22851,0.105469 0.6914,0.105469 0.26954,0 0.5625,-0.07617 0.29297,-0.08203 0.42188,-0.134765 h 0.0586 z"
         style="font-size:11.99999905px;line-height:21.99999809px;fill:#26599a;fill-opacity:1"
         id="path4751" /><path
         d="m 323.19726,72.66476 h -1.50586 l -2.91797,-3.46875 h -1.63476 v 3.46875 h -1.16016 v -8.724609 h 2.44336 q 0.79102,0 1.31836,0.105469 0.52734,0.09961 0.94922,0.363281 0.47461,0.298828 0.73828,0.755859 0.26953,0.451172 0.26953,1.148438 0,0.943359 -0.47461,1.582031 -0.47461,0.632812 -1.30664,0.955078 z m -2.71289,-6.269531 q 0,-0.375 -0.13476,-0.662109 -0.12891,-0.292969 -0.4336,-0.492188 -0.25195,-0.169922 -0.59765,-0.234375 -0.34571,-0.07031 -0.81446,-0.07031 h -1.36523 v 3.292968 h 1.17187 q 0.55078,0 0.96094,-0.09375 0.41016,-0.09961 0.69727,-0.363281 0.26367,-0.246094 0.38671,-0.5625 0.12891,-0.322266 0.12891,-0.814453 z"
         style="font-size:11.99999905px;line-height:21.99999809px;fill:#26599a;fill-opacity:1"
         id="path4753" /><path
         d="m 325.41796,65.024135 h -1.24218 v -1.142578 h 1.24218 z m -0.0703,7.640625 h -1.10156 v -6.544922 h 1.10156 z"
         style="font-size:11.99999905px;line-height:21.99999809px;fill:#26599a;fill-opacity:1"
         id="path4755" /><path
         d="m 332.16796,70.778041 q 0,0.896484 -0.74414,1.470703 -0.73828,0.574219 -2.02148,0.574219 -0.72656,0 -1.33594,-0.169922 -0.60351,-0.175781 -1.01367,-0.380859 v -1.236328 h 0.0586 q 0.52149,0.392578 1.16016,0.626953 0.63867,0.228515 1.22461,0.228515 0.72656,0 1.13672,-0.234375 0.41015,-0.234375 0.41015,-0.738281 0,-0.386719 -0.22265,-0.585937 -0.22266,-0.199219 -0.85547,-0.339844 -0.23438,-0.05273 -0.61523,-0.123047 -0.375,-0.07031 -0.68555,-0.152344 -0.86133,-0.228515 -1.22461,-0.667968 -0.35742,-0.445313 -0.35742,-1.089844 0,-0.404297 0.16406,-0.761719 0.16992,-0.357422 0.50977,-0.638671 0.32812,-0.275391 0.83203,-0.433594 0.50976,-0.164063 1.13672,-0.164063 0.58593,0 1.18359,0.146485 0.60351,0.140625 1.00195,0.345703 v 1.177734 h -0.0586 q -0.42188,-0.310547 -1.02539,-0.521484 -0.60352,-0.216797 -1.1836,-0.216797 -0.60351,0 -1.01953,0.234375 -0.41601,0.228515 -0.41601,0.685547 0,0.404296 0.25195,0.609375 0.24609,0.205078 0.79688,0.333984 0.30468,0.07031 0.67968,0.140625 0.38086,0.07031 0.63282,0.128906 0.76757,0.175781 1.18359,0.603516 0.41601,0.433593 0.41601,1.148437 z"
         style="font-size:11.99999905px;line-height:21.99999809px;fill:#26599a;fill-opacity:1"
         id="path4757" /><path
         d="m 339.22851,69.506557 h -4.82226 q 0,0.603515 0.18164,1.054687 0.18164,0.445313 0.49804,0.732422 0.30469,0.28125 0.72071,0.421875 0.42187,0.140625 0.92578,0.140625 0.66797,0 1.34179,-0.263672 0.67969,-0.269531 0.9668,-0.527343 h 0.0586 v 1.201171 q -0.55665,0.234375 -1.13672,0.392578 -0.58008,0.158204 -1.21875,0.158204 -1.62891,0 -2.54297,-0.878907 -0.91406,-0.884765 -0.91406,-2.507812 0,-1.605469 0.87304,-2.548828 0.87891,-0.943359 2.3086,-0.943359 1.32421,0 2.03906,0.773437 0.7207,0.773438 0.7207,2.197266 z m -1.07226,-0.84375 q -0.006,-0.867187 -0.43946,-1.341797 -0.42773,-0.474609 -1.30664,-0.474609 -0.88476,0 -1.41211,0.521484 -0.52148,0.521485 -0.59179,1.294922 z"
         style="font-size:11.99999905px;line-height:21.99999809px;fill:#26599a;fill-opacity:1"
         id="path4759" /><path
         d="m 286.3418,86.971401 h -3.11719 v 7.693359 h -1.16016 v -7.693359 h -3.11719 v -1.03125 h 7.39454 z"
         style="font-size:11.99999905px;line-height:21.99999809px;fill:#feda60;fill-opacity:1"
         id="path4761" /><path
         d="m 292.91015,94.66476 h -1.10156 v -3.726562 q 0,-0.451172 -0.0527,-0.84375 -0.0527,-0.398438 -0.19336,-0.621094 -0.14649,-0.246094 -0.42188,-0.363281 -0.27539,-0.123047 -0.71484,-0.123047 -0.45117,0 -0.94336,0.222656 -0.49219,0.222656 -0.94336,0.568359 v 4.886719 h -1.10156 v -9.117187 h 1.10156 v 3.298828 q 0.51563,-0.427734 1.06641,-0.667969 0.55078,-0.240234 1.13086,-0.240234 1.06054,0 1.61718,0.638672 0.55664,0.638671 0.55664,1.839843 z"
         style="font-size:11.99999905px;line-height:21.99999809px;fill:#feda60;fill-opacity:1"
         id="path4763" /><path
         d="m 296.21484,87.024135 h -1.24219 v -1.142578 h 1.24219 z m -0.0703,7.640625 h -1.10156 v -6.544922 h 1.10156 z"
         style="font-size:11.99999905px;line-height:21.99999809px;fill:#feda60;fill-opacity:1"
         id="path4765" /><path
         d="m 303.59765,93.920619 q 0,1.664063 -0.75586,2.443359 -0.75585,0.779297 -2.32617,0.779297 -0.52148,0 -1.01953,-0.07617 -0.49219,-0.07031 -0.97265,-0.205078 v -1.125 h 0.0586 q 0.26953,0.105469 0.85547,0.257813 0.58594,0.158203 1.17187,0.158203 0.5625,0 0.93164,-0.134766 0.36914,-0.134765 0.57422,-0.375 0.20508,-0.228515 0.29297,-0.550781 0.0879,-0.322265 0.0879,-0.720703 v -0.597656 q -0.49805,0.398437 -0.95508,0.597656 -0.45117,0.193359 -1.15429,0.193359 -1.17188,0 -1.86328,-0.84375 -0.68555,-0.849609 -0.68555,-2.390624 0,-0.84375 0.23437,-1.453125 0.24024,-0.615235 0.65039,-1.060547 0.38086,-0.416016 0.92579,-0.644531 0.54492,-0.234375 1.08398,-0.234375 0.56836,0 0.94922,0.117187 0.38672,0.111328 0.81445,0.345703 l 0.0703,-0.28125 h 1.03125 z m -1.10156,-1.054687 v -3.568359 q -0.43945,-0.199219 -0.82031,-0.28125 -0.375,-0.08789 -0.75,-0.08789 -0.9082,0 -1.42969,0.609375 -0.52148,0.609375 -0.52148,1.769531 0,1.101563 0.38672,1.669922 0.38671,0.568359 1.2832,0.568359 0.48047,0 0.96094,-0.18164 0.48632,-0.1875 0.89062,-0.498047 z"
         style="font-size:11.99999905px;line-height:21.99999809px;fill:#feda60;fill-opacity:1"
         id="path4767" /><path
         d="m 311.23828,94.66476 h -1.10157 v -3.726562 q 0,-0.451172 -0.0527,-0.84375 -0.0527,-0.398438 -0.19336,-0.621094 -0.14648,-0.246094 -0.42187,-0.363281 -0.27539,-0.123047 -0.71485,-0.123047 -0.45117,0 -0.94336,0.222656 -0.49218,0.222656 -0.94336,0.568359 v 4.886719 h -1.10156 v -9.117187 h 1.10156 v 3.298828 q 0.51563,-0.427734 1.06641,-0.667969 0.55078,-0.240234 1.13086,-0.240234 1.06055,0 1.61719,0.638672 0.55664,0.638671 0.55664,1.839843 z"
         style="font-size:11.99999905px;line-height:21.99999809px;fill:#feda60;fill-opacity:1"
         id="path4769" /><path
         d="m 287.13281,116.66476 h -1.50586 l -3.45117,-3.88477 -0.86719,0.92579 v 2.95898 h -1.16015 v -8.72461 h 1.16015 v 4.55274 l 4.23633,-4.55274 h 1.40625 l -3.89648,4.10156 z"
         style="font-size:11.99999905px;line-height:21.99999809px;fill:#005b3a;fill-opacity:1"
         id="path4771" /><path
         d="m 293.82422,116.66476 h -1.10157 v -3.72656 q 0,-0.45117 -0.0527,-0.84375 -0.0527,-0.39844 -0.19336,-0.6211 -0.14648,-0.24609 -0.42187,-0.36328 -0.2754,-0.12304 -0.71485,-0.12304 -0.45117,0 -0.94336,0.22265 -0.49219,0.22266 -0.94336,0.56836 v 4.88672 h -1.10156 v -6.54492 h 1.10156 v 0.72656 q 0.51563,-0.42773 1.06641,-0.66797 0.55078,-0.24023 1.13086,-0.24023 1.06055,0 1.61719,0.63867 0.55664,0.63867 0.55664,1.83984 z"
         style="font-size:11.99999905px;line-height:21.99999809px;fill:#005b3a;fill-opacity:1"
         id="path4773" /><path
         d="m 301.42383,113.50656 h -4.82227 q 0,0.60351 0.18164,1.05468 0.18164,0.44532 0.49805,0.73243 0.30469,0.28125 0.7207,0.42187 0.42188,0.14063 0.92578,0.14063 0.66797,0 1.3418,-0.26368 0.67969,-0.26953 0.9668,-0.52734 h 0.0586 v 1.20117 q -0.55664,0.23438 -1.13672,0.39258 -0.58008,0.1582 -1.21875,0.1582 -1.62891,0 -2.54297,-0.8789 -0.91406,-0.88477 -0.91406,-2.50781 0,-1.60547 0.87305,-2.54883 0.8789,-0.94336 2.30859,-0.94336 1.32422,0 2.03906,0.77344 0.72071,0.77343 0.72071,2.19726 z m -1.07227,-0.84375 q -0.006,-0.86719 -0.43945,-1.3418 -0.42774,-0.47461 -1.30664,-0.47461 -0.88477,0 -1.41211,0.52149 -0.52149,0.52148 -0.5918,1.29492 z"
         style="font-size:11.99999905px;line-height:21.99999809px;fill:#005b3a;fill-opacity:1"
         id="path4775" /><path
         d="M 308.57226,113.50656 H 303.75 q 0,0.60351 0.18164,1.05468 0.18164,0.44532 0.49804,0.73243 0.30469,0.28125 0.72071,0.42187 0.42187,0.14063 0.92578,0.14063 0.66797,0 1.34179,-0.26368 0.67969,-0.26953 0.9668,-0.52734 h 0.0586 v 1.20117 q -0.55665,0.23438 -1.13672,0.39258 -0.58008,0.1582 -1.21875,0.1582 -1.62891,0 -2.54297,-0.8789 -0.91406,-0.88477 -0.91406,-2.50781 0,-1.60547 0.87304,-2.54883 0.87891,-0.94336 2.3086,-0.94336 1.32421,0 2.03906,0.77344 0.7207,0.77343 0.7207,2.19726 z M 307.5,112.66281 q -0.006,-0.86719 -0.43946,-1.3418 -0.42773,-0.47461 -1.30664,-0.47461 -0.88476,0 -1.41211,0.52149 -0.52148,0.52148 -0.59179,1.29492 z"
         style="font-size:11.99999905px;line-height:21.99999809px;fill:#005b3a;fill-opacity:1"
         id="path4777" /><path
         d="m 285.63867,138.66476 h -5.51953 v -8.72461 h 1.16016 v 7.69336 h 4.35937 z"
         style="font-size:11.99999905px;line-height:21.99999809px;fill:#e45c68;fill-opacity:1"
         id="path4779" /><path
         d="m 292.18945,135.50656 h -4.82226 q 0,0.60351 0.18164,1.05468 0.18164,0.44532 0.49804,0.73243 0.30469,0.28125 0.72071,0.42187 0.42187,0.14063 0.92578,0.14063 0.66797,0 1.34179,-0.26368 0.67969,-0.26953 0.9668,-0.52734 h 0.0586 v 1.20117 q -0.55664,0.23438 -1.13671,0.39258 -0.58008,0.1582 -1.21875,0.1582 -1.62891,0 -2.54297,-0.8789 -0.91407,-0.88477 -0.91407,-2.50781 0,-1.60547 0.87305,-2.54883 0.87891,-0.94336 2.3086,-0.94336 1.32421,0 2.03906,0.77344 0.7207,0.77343 0.7207,2.19726 z m -1.07226,-0.84375 q -0.006,-0.86719 -0.43946,-1.3418 -0.42773,-0.47461 -1.30664,-0.47461 -0.88476,0 -1.41211,0.52149 -0.52148,0.52148 -0.59179,1.29492 z"
         style="font-size:11.99999905px;line-height:21.99999809px;fill:#e45c68;fill-opacity:1"
         id="path4781" /><path
         d="m 299.16797,137.92062 q 0,1.66406 -0.75586,2.44336 -0.75586,0.7793 -2.32617,0.7793 -0.52149,0 -1.01954,-0.0762 -0.49218,-0.0703 -0.97265,-0.20507 v -1.125 h 0.0586 q 0.26953,0.10546 0.85547,0.25781 0.58594,0.1582 1.17188,0.1582 0.5625,0 0.93164,-0.13476 0.36914,-0.13477 0.57421,-0.375 0.20508,-0.22852 0.29297,-0.55079 0.0879,-0.32226 0.0879,-0.7207 v -0.59766 q -0.49804,0.39844 -0.95507,0.59766 -0.45118,0.19336 -1.1543,0.19336 -1.17188,0 -1.86328,-0.84375 -0.68555,-0.84961 -0.68555,-2.39062 0,-0.84375 0.23438,-1.45313 0.24023,-0.61523 0.65039,-1.06055 0.38086,-0.41601 0.92578,-0.64453 0.54492,-0.23437 1.08398,-0.23437 0.56836,0 0.94922,0.11719 0.38672,0.11132 0.81445,0.3457 l 0.0703,-0.28125 h 1.03125 z m -1.10157,-1.05469 v -3.56836 q -0.43945,-0.19922 -0.82031,-0.28125 -0.375,-0.0879 -0.75,-0.0879 -0.9082,0 -1.42969,0.60938 -0.52148,0.60937 -0.52148,1.76953 0,1.10156 0.38672,1.66992 0.38672,0.56836 1.2832,0.56836 0.48047,0 0.96094,-0.18164 0.48633,-0.1875 0.89062,-0.49805 z"
         style="font-size:11.99999905px;line-height:21.99999809px;fill:#e45c68;fill-opacity:1"
         id="path4783" /><path
         d="m 312.14648,130.9421 q 0.5332,0.58594 0.81445,1.43555 0.28711,0.84961 0.28711,1.92774 0,1.07812 -0.29297,1.93359 -0.28711,0.84961 -0.80859,1.41797 -0.53906,0.59179 -1.27734,0.89062 -0.73243,0.29883 -1.67578,0.29883 -0.91993,0 -1.67579,-0.30469 -0.75,-0.30468 -1.27734,-0.88476 -0.52734,-0.58008 -0.81445,-1.42383 -0.28125,-0.84375 -0.28125,-1.92773 0,-1.06641 0.28125,-1.91016 0.28125,-0.84961 0.82031,-1.45313 0.51562,-0.57421 1.27734,-0.8789 0.76758,-0.30469 1.66993,-0.30469 0.9375,0 1.68164,0.31055 0.75,0.30468 1.27148,0.87304 z m -0.10547,3.36329 q 0,-1.69922 -0.76172,-2.61915 -0.76172,-0.92578 -2.08008,-0.92578 -1.33007,0 -2.09179,0.92578 -0.75586,0.91993 -0.75586,2.61915 0,1.71679 0.77344,2.63085 0.77343,0.90821 2.07421,0.90821 1.30079,0 2.06836,-0.90821 0.77344,-0.91406 0.77344,-2.63085 z"
         style="font-size:11.99999905px;line-height:21.99999809px;fill:#e45c68;fill-opacity:1"
         id="path4785" /><path
         d="m 320.75976,135.3132 q 0,0.79687 -0.22851,1.45898 -0.22852,0.65625 -0.64454,1.11328 -0.38671,0.4336 -0.91406,0.67383 -0.52148,0.23438 -1.10742,0.23438 -0.50977,0 -0.92578,-0.11133 -0.41016,-0.11133 -0.83789,-0.34571 v 2.74219 H 315 v -8.95898 h 1.10156 v 0.68555 q 0.43945,-0.36915 0.98437,-0.61524 0.55078,-0.25195 1.17188,-0.25195 1.18359,0 1.83984,0.89648 0.66211,0.89063 0.66211,2.47852 z m -1.13672,0.0293 q 0,-1.18359 -0.40429,-1.76953 -0.4043,-0.58593 -1.24219,-0.58593 -0.47461,0 -0.95508,0.20507 -0.48047,0.20508 -0.91992,0.53907 v 3.70898 q 0.46875,0.21094 0.80273,0.28711 0.33985,0.0762 0.76758,0.0762 0.91992,0 1.43555,-0.62109 0.51562,-0.6211 0.51562,-1.83985 z"
         style="font-size:11.99999905px;line-height:21.99999809px;fill:#e45c68;fill-opacity:1"
         id="path4787" /><path
         d="m 327.95507,135.50656 h -4.82226 q 0,0.60351 0.18164,1.05468 0.18164,0.44532 0.49805,0.73243 0.30468,0.28125 0.7207,0.42187 0.42187,0.14063 0.92578,0.14063 0.66797,0 1.3418,-0.26368 0.67968,-0.26953 0.96679,-0.52734 h 0.0586 v 1.20117 q -0.55664,0.23438 -1.13672,0.39258 -0.58008,0.1582 -1.21875,0.1582 -1.62891,0 -2.54297,-0.8789 -0.91406,-0.88477 -0.91406,-2.50781 0,-1.60547 0.87304,-2.54883 0.87891,-0.94336 2.3086,-0.94336 1.32422,0 2.03906,0.77344 0.7207,0.77343 0.7207,2.19726 z m -1.07226,-0.84375 q -0.006,-0.86719 -0.43945,-1.3418 -0.42774,-0.47461 -1.30665,-0.47461 -0.88476,0 -1.4121,0.52149 -0.52149,0.52148 -0.5918,1.29492 z"
         style="font-size:11.99999905px;line-height:21.99999809px;fill:#e45c68;fill-opacity:1"
         id="path4789" /><path
         d="m 335.09765,138.66476 h -1.10156 v -3.72656 q 0,-0.45117 -0.0527,-0.84375 -0.0527,-0.39844 -0.19336,-0.6211 -0.14649,-0.24609 -0.42188,-0.36328 -0.27539,-0.12304 -0.71484,-0.12304 -0.45117,0 -0.94336,0.22265 -0.49219,0.22266 -0.94336,0.56836 v 4.88672 H 329.625 v -6.54492 h 1.10156 v 0.72656 q 0.51562,-0.42773 1.0664,-0.66797 0.55079,-0.24023 1.13086,-0.24023 1.06055,0 1.61719,0.63867 0.55664,0.63867 0.55664,1.83984 z"
         style="font-size:11.99999905px;line-height:21.99999809px;fill:#e45c68;fill-opacity:1"
         id="path4791" /><path
         d="m 338.40234,131.02414 h -1.24219 v -1.14258 h 1.24219 z m -0.0703,7.64062 h -1.10156 v -6.54492 h 1.10156 z"
         style="font-size:11.99999905px;line-height:21.99999809px;fill:#e45c68;fill-opacity:1"
         id="path4793" /><path
         d="m 345.94921,138.66476 h -1.10156 v -3.72656 q 0,-0.45117 -0.0527,-0.84375 -0.0527,-0.39844 -0.19336,-0.6211 -0.14648,-0.24609 -0.42187,-0.36328 -0.27539,-0.12304 -0.71484,-0.12304 -0.45118,0 -0.94336,0.22265 -0.49219,0.22266 -0.94336,0.56836 v 4.88672 h -1.10157 v -6.54492 h 1.10157 v 0.72656 q 0.51562,-0.42773 1.0664,-0.66797 0.55078,-0.24023 1.13086,-0.24023 1.06055,0 1.61719,0.63867 0.55664,0.63867 0.55664,1.83984 z"
         style="font-size:11.99999905px;line-height:21.99999809px;fill:#e45c68;fill-opacity:1"
         id="path4795" /><path
         d="m 353.3789,137.92062 q 0,1.66406 -0.75586,2.44336 -0.75586,0.7793 -2.32617,0.7793 -0.52149,0 -1.01953,-0.0762 -0.49219,-0.0703 -0.97266,-0.20507 v -1.125 h 0.0586 q 0.26953,0.10546 0.85547,0.25781 0.58594,0.1582 1.17188,0.1582 0.5625,0 0.93164,-0.13476 0.36914,-0.13477 0.57422,-0.375 0.20507,-0.22852 0.29297,-0.55079 0.0879,-0.32226 0.0879,-0.7207 v -0.59766 q -0.49805,0.39844 -0.95508,0.59766 -0.45117,0.19336 -1.1543,0.19336 -1.17187,0 -1.86328,-0.84375 -0.68555,-0.84961 -0.68555,-2.39062 0,-0.84375 0.23438,-1.45313 0.24023,-0.61523 0.65039,-1.06055 0.38086,-0.41601 0.92578,-0.64453 0.54492,-0.23437 1.08398,-0.23437 0.56836,0 0.94922,0.11719 0.38672,0.11132 0.81446,0.3457 l 0.0703,-0.28125 h 1.03125 z m -1.10156,-1.05469 v -3.56836 q -0.43946,-0.19922 -0.82032,-0.28125 -0.375,-0.0879 -0.75,-0.0879 -0.9082,0 -1.42968,0.60938 -0.52149,0.60937 -0.52149,1.76953 0,1.10156 0.38672,1.66992 0.38672,0.56836 1.2832,0.56836 0.48047,0 0.96094,-0.18164 0.48633,-0.1875 0.89063,-0.49805 z"
         style="font-size:11.99999905px;line-height:21.99999809px;fill:#e45c68;fill-opacity:1"
         id="path4797" /></g><rect
       style="fill:#ed243f;fill-opacity:1;stroke-width:0.02496219"
       id="rect4624"
       width="0.249516"
       height="0.249516"
       x="7.5820284"
       y="-0.62051749" /><rect
       style="fill:#3f2c63;fill-opacity:1;fill-rule:evenodd;stroke-width:0.02496219"
       id="rect4624-2"
       width="0.249516"
       height="0.249516"
       x="7.5664334"
       y="-0.059106711" /><rect
       style="fill:#26599a;fill-opacity:1;fill-rule:evenodd;stroke-width:0.02496219"
       id="rect4624-1"
       width="0.249516"
       height="0.249516"
       x="7.5820279"
       y="0.51789898" /><rect
       style="fill:#feda60;fill-opacity:1;fill-rule:evenodd;stroke-width:0.02496219"
       id="rect4624-3"
       width="0.249516"
       height="0.249516"
       x="7.5820279"
       y="1.0137907" /><rect
       style="fill:#005b3a;fill-opacity:1;fill-rule:evenodd;stroke-width:0.02496219"
       id="rect4624-25"
       width="0.249516"
       height="0.249516"
       x="7.5820279"
       y="1.5752016" /><rect
       style="fill:#e45c68;fill-opacity:1;fill-rule:evenodd;stroke-width:0.02496219"
       id="rect4624-0"
       width="0.249516"
       height="0.249516"
       x="7.5820274"
       y="2.105423" /><path
       style="fill:none;stroke:#ed243f;stroke-width:0.02496219;stroke-linecap:butt;stroke-linejoin:miter;stroke-opacity:1;stroke-miterlimit:4;stroke-dasharray:0.29954629,0.02496219;stroke-dashoffset:0"
       d="M 1.7931304,-0.77960518 6.175255,-0.79519993"
       id="path4665"
       inkscape:connector-curvature="0" /><path
       style="fill:none;stroke:#3f2c63;stroke-width:0.02496219;stroke-linecap:butt;stroke-linejoin:miter;stroke-opacity:1;stroke-miterlimit:4;stroke-dasharray:0.19969753, 0.02496219000000000;stroke-dashoffset:0"
       d="M 4.3506694,0.99819626 5.9725233,10.011961"
       id="path4667"
       inkscape:connector-curvature="0" /><path
       style="fill:none;stroke:#26599a;stroke-width:0.02496219;stroke-linecap:butt;stroke-linejoin:miter;stroke-opacity:1;stroke-miterlimit:4;stroke-dasharray:0.19969753, 0.02496219000000000;stroke-dashoffset:0"
       d="M 4.1326089,0.94164873 4.1635324,-1.2630424"
       id="path4669"
       inkscape:connector-curvature="0" /><path
       style="fill:none;stroke:#feda60;stroke-width:0.02496219;stroke-linecap:butt;stroke-linejoin:miter;stroke-opacity:1;stroke-miterlimit:4;stroke-dasharray:0.19969753, 0.02496219000000000;stroke-dashoffset:0"
       d="m 1.2695313,2.5947995 2.4443596,0.031745"
       id="path4671"
       inkscape:connector-curvature="0" /><path
       style="fill:none;fill-rule:evenodd;stroke:#005b3a;stroke-width:0.02496219;stroke-linecap:butt;stroke-linejoin:miter;stroke-miterlimit:4;stroke-dasharray:0.1996975, 0.02496219000000000;stroke-dashoffset:0;stroke-opacity:1"
       d="M 0.86513025,4.6831062 3.3094899,4.7148512"
       id="path4671-4"
       inkscape:connector-curvature="0" /><path
       style="fill:none;fill-rule:evenodd;stroke:#e45c68;stroke-width:0.02256119;stroke-linecap:butt;stroke-linejoin:miter;stroke-miterlimit:4;stroke-dasharray:0.18048949, 0.02256119000000000;stroke-dashoffset:0;stroke-opacity:1"
       d="M 0.08284058,9.7792037 2.0583084,10.091736"
       id="path4671-4-9"
       inkscape:connector-curvature="0" /></g></svg>