<?xml version="1.0" encoding="UTF-8" standalone="no"?>
<!-- Created with Inkscape (http://www.inkscape.org/) -->

<svg
   xmlns:dc="http://purl.org/dc/elements/1.1/"
   xmlns:cc="http://creativecommons.org/ns#"
   xmlns:rdf="http://www.w3.org/1999/02/22-rdf-syntax-ns#"
   xmlns:svg="http://www.w3.org/2000/svg"
   xmlns="http://www.w3.org/2000/svg"
   xmlns:sodipodi="http://sodipodi.sourceforge.net/DTD/sodipodi-0.dtd"
   xmlns:inkscape="http://www.inkscape.org/namespaces/inkscape"
   id="svg3336"
   version="1.1"
   inkscape:version="0.91 r13725"
   xml:space="preserve"
   width="346.01208"
   height="131.21249"
   viewBox="0 0 346.01208 131.21249"
   sodipodi:docname="symbol_logo.svg"><metadata
     id="metadata3342"><rdf:RDF><cc:Work
         rdf:about=""><dc:format>image/svg+xml</dc:format><dc:type
           rdf:resource="http://purl.org/dc/dcmitype/StillImage" /><dc:title></dc:title></cc:Work></rdf:RDF></metadata><defs
     id="defs3340"><clipPath
       clipPathUnits="userSpaceOnUse"
       id="clipPath3382"><path
         d="M 0,112 325,112 325,0 0,0 0,112 Z"
         id="path3384"
         inkscape:connector-curvature="0" /></clipPath></defs><sodipodi:namedview
     pagecolor="#ffffff"
     bordercolor="#666666"
     borderopacity="1"
     objecttolerance="10"
     gridtolerance="10"
     guidetolerance="10"
     inkscape:pageopacity="0"
     inkscape:pageshadow="2"
     inkscape:window-width="1536"
     inkscape:window-height="801"
     id="namedview3338"
     showgrid="false"
     inkscape:zoom="2.6633846"
     inkscape:cx="175.52458"
     inkscape:cy="65.355875"
     inkscape:window-x="1912"
     inkscape:window-y="-8"
     inkscape:window-maximized="1"
     inkscape:current-layer="g3344"
     fit-margin-top="0"
     fit-margin-left="0"
     fit-margin-right="0"
     fit-margin-bottom="0" /><g
     id="g3344"
     inkscape:groupmode="layer"
     inkscape:label="symbol_logo"
     transform="matrix(1.25,0,0,-1.25,-27.600417,135.85662)"><path
       d="m 69.364,35.837 -1.953,0 0,42.013 1.953,0 0,-42.013 z"
       style="fill:#292929;fill-opacity:1;fill-rule:nonzero;stroke:none"
       id="path3346"
       inkscape:connector-curvature="0" /><path
       d="m 95.352,36.183 -1.943,0 0,41.703 1.943,0 0,-41.703 z"
       style="fill:#292929;fill-opacity:1;fill-rule:nonzero;stroke:none"
       id="path3348"
       inkscape:connector-curvature="0" /><path
       d="m 147.735,36.183 -1.953,0 0,23.52 1.953,0 0,-23.52 z"
       style="fill:#292929;fill-opacity:1;fill-rule:nonzero;stroke:none"
       id="path3350"
       inkscape:connector-curvature="0" /><path
       d="m 121.238,36.438 -1.953,0 0,41.697 1.953,0 0,-41.697 z"
       style="fill:#292929;fill-opacity:1;fill-rule:nonzero;stroke:none"
       id="path3352"
       inkscape:connector-curvature="0" /><g
       id="g3354"
       transform="translate(162.1587,34.8672)"><path
         d="m 0,0 -27.379,0 0,1.948 50.569,0 L 23.19,0 0,0 Z"
         style="fill:#292929;fill-opacity:1;fill-rule:nonzero;stroke:none"
         id="path3356"
         inkscape:connector-curvature="0" /></g><g
       id="g3358"
       transform="translate(125.3623,34.8672)"><path
         d="m 0,0 -65.532,0 -13.093,22.129 1.676,0.993 L -64.416,1.948 0,1.948 0,0 Z"
         style="fill:#292929;fill-opacity:1;fill-rule:nonzero;stroke:none"
         id="path3360"
         inkscape:connector-curvature="0" /></g><path
       d="m 142.933,76.906 -95.973,0 0,1.953 95.973,0 0,-1.953 z"
       style="fill:#292929;fill-opacity:1;fill-rule:nonzero;stroke:none"
       id="path3362"
       inkscape:connector-curvature="0" /><path
       d="m 255.219,35.837 -1.957,0 0,42.013 1.957,0 0,-42.013 z"
       style="fill:#292929;fill-opacity:1;fill-rule:nonzero;stroke:none"
       id="path3364"
       inkscape:connector-curvature="0" /><path
       d="m 229.217,36.183 -1.958,0 0,41.703 1.958,0 0,-41.703 z"
       style="fill:#292929;fill-opacity:1;fill-rule:nonzero;stroke:none"
       id="path3366"
       inkscape:connector-curvature="0" /><path
       d="m 176.089,36.183 -1.949,0 0,22.307 1.949,0 0,-22.307 z"
       style="fill:#292929;fill-opacity:1;fill-rule:nonzero;stroke:none"
       id="path3368"
       inkscape:connector-curvature="0" /><path
       d="m 203.335,36.438 -1.947,0 0,41.697 1.947,0 0,-41.697 z"
       style="fill:#292929;fill-opacity:1;fill-rule:nonzero;stroke:none"
       id="path3370"
       inkscape:connector-curvature="0" /><g
       id="g3372"
       transform="translate(261.4297,34.8672)"><path
         d="m 0,0 -65.15,0 0,1.948 64.048,0 12.186,20.358 1.673,-1.003 L 0,0 Z"
         style="fill:#292929;fill-opacity:1;fill-rule:nonzero;stroke:none"
         id="path3374"
         inkscape:connector-curvature="0" /></g><path
       d="m 179.046,78.859 95.303,0 0,-1.953 -95.303,0 0,1.953 z"
       style="fill:#292929;fill-opacity:1;fill-rule:nonzero;stroke:none"
       id="path3376"
       inkscape:connector-curvature="0" /><g
       id="g3378"><g
         id="g3380"
         clip-path="url(#clipPath3382)"><g
           id="g3386"
           transform="translate(283.7822,73.2349)"><path
             d="m 0,0 c -0.296,-3.733 -0.348,-25.254 -0.062,-28.946 2.642,0.042 11.157,0.245 12.788,0.552 0.235,0.958 0.253,4.317 0.131,5.471 -0.202,0.019 -0.529,0.035 -1.07,0.035 -0.479,0 -0.988,-0.016 -1.509,-0.026 -0.539,-0.009 -1.05,-0.025 -1.528,-0.025 -1.296,0 -2.418,0 -2.418,0.948 l 0,12.742 c 0,0.245 -0.02,0.575 -0.03,0.887 -0.052,0.974 -0.082,1.381 0.214,1.703 l 0.203,0.229 0.349,0.02 c 0.989,0.015 5.486,0.372 6.362,0.76 0.285,0.801 -0.123,4.335 -0.389,5.585 -0.03,0.008 -0.08,0.008 -0.141,0.008 C 11.88,0 9.728,0.025 6.485,0.025 3.833,0.025 1.162,0.004 0,0 m -0.683,-30.415 c -0.898,0 -1.062,0 -1.062,13.957 0,4.206 0.061,8.468 0.103,11.681 0.041,1.702 0.08,3.054 0.132,4.012 0.071,1.571 0.112,2.218 0.889,2.218 l 0.347,0.01 c 0.998,0.01 3.875,0.026 6.759,0.026 3.254,0 5.444,-0.026 6.476,-0.082 0.652,-0.026 0.977,-0.041 1.222,-0.347 0.46,-0.545 0.92,-5.022 0.757,-6.506 -0.06,-0.683 -0.246,-1.091 -0.564,-1.33 -0.845,-0.663 -5.006,-0.974 -6.637,-1.072 0,-0.142 0.022,-0.304 0.022,-0.438 0.021,-0.337 0.051,-0.693 0.051,-0.963 l 0,-12.202 c 0.193,-0.005 0.477,-0.014 0.938,-0.014 0.458,0 0.978,0 1.497,0.014 0.53,0 1.061,0.021 1.54,0.021 1.52,0 2.09,-0.087 2.357,-0.587 0.326,-0.637 0.49,-6.642 -0.346,-7.479 -0.286,-0.286 -0.521,-0.52 -7.486,-0.754 -3.364,-0.103 -6.73,-0.165 -6.995,-0.165"
             style="fill:#292929;fill-opacity:1;fill-rule:nonzero;stroke:none"
             id="path3388"
             inkscape:connector-curvature="0" /></g><g
           id="g3390"
           transform="translate(229.2988,96.5757)"><path
             d="m 0,0 c -13.278,0 -23.107,-0.566 -28.441,-1.642 -8.739,-1.764 -17.538,-3.94 -20.669,-9.503 -1.469,-2.666 -1.51,-5.833 -0.082,-9.724 14.949,-40.88 17.641,-48.232 36.323,-54.064 l 0.713,-0.216 c 6.669,-2.079 12.951,-4.048 19.273,-4.048 4.855,0 9.412,1.173 13.929,3.6 l 0.948,0.51 c 11.737,6.282 20.223,10.83 20.774,20.161 0.622,10.742 1.201,37.168 0.622,39.396 -1.032,3.849 -3.734,7.098 -7.844,9.407 -4.639,2.61 -12.888,5.634 -17.324,5.797 C 16.182,-0.249 8.851,0 0,0 m 7.117,-81.144 c -6.609,0 -13.053,2.009 -19.864,4.141 l -0.694,0.203 c -19.62,6.118 -22.352,13.623 -37.587,55.269 -1.611,4.385 -1.531,8.199 0.225,11.334 3.528,6.292 12.787,8.616 21.964,10.462 6.894,1.387 19.477,1.689 28.839,1.689 8.891,0 16.243,-0.25 18.293,-0.327 4.782,-0.179 13.277,-3.279 18.223,-6.058 4.557,-2.569 7.596,-6.235 8.757,-10.594 0.736,-2.825 -0.018,-30.608 -0.569,-40.015 -0.613,-10.432 -9.952,-15.439 -21.802,-21.78 l -0.926,-0.49 c -4.804,-2.58 -9.679,-3.834 -14.859,-3.834"
             style="fill:#292929;fill-opacity:1;fill-rule:nonzero;stroke:none"
             id="path3392"
             inkscape:connector-curvature="0" /></g><g
           id="g3394"
           transform="translate(24.4663,44.8408)"><path
             d="m 0,0 c 1.636,-0.316 10.156,-0.521 12.802,-0.552 0.281,3.682 0.23,25.209 -0.072,28.946 -1.162,0 -3.829,0.015 -6.49,0.015 -3.238,0 -5.389,-0.015 -6.408,-0.072 -0.053,0 -0.113,-0.008 -0.149,-0.015 C -0.587,27.079 -0.975,23.53 -0.694,22.739 0.131,22.356 4.67,22 5.674,21.964 l 0.301,0 0.24,-0.229 C 6.505,21.413 6.48,21.006 6.43,20.012 6.408,19.711 6.393,19.383 6.393,19.125 l 0,-12.727 C 6.393,5.455 5.271,5.455 3.976,5.455 3.518,5.455 2.981,5.471 2.452,5.471 1.937,5.49 1.412,5.49 0.952,5.49 0.403,5.49 0.07,5.48 -0.123,5.455 -0.246,4.317 -0.229,0.958 0,0 m 13.404,-2.021 c -0.256,0 -3.621,0.042 -6.996,0.166 -6.949,0.222 -7.189,0.467 -7.464,0.743 -0.842,0.847 -0.684,6.852 -0.347,7.489 0.26,0.5 0.816,0.577 2.355,0.577 0.469,0 1.001,-0.011 1.535,-0.016 0.515,-0.009 1.031,-0.025 1.489,-0.025 0.455,0 0.755,0.016 0.948,0.03 l 0,12.182 c 0,0.286 0.031,0.637 0.047,0.979 0,0.132 0.02,0.28 0.02,0.442 -1.637,0.087 -5.788,0.399 -6.644,1.061 -0.306,0.25 -0.484,0.658 -0.555,1.336 -0.169,1.474 0.29,5.966 0.754,6.511 0.246,0.296 0.567,0.321 1.225,0.341 1.028,0.052 3.21,0.077 6.469,0.077 2.886,0 5.777,-0.015 6.756,-0.025 l 0.357,0 c 0.78,0 0.815,-0.658 0.887,-2.239 0.051,-0.937 0.087,-2.289 0.123,-4.002 0.06,-3.202 0.106,-7.464 0.106,-11.691 0,-3.609 -0.035,-6.878 -0.087,-9.193 -0.091,-4.355 -0.128,-4.743 -0.978,-4.743"
             style="fill:#292929;fill-opacity:1;fill-rule:nonzero;stroke:none"
             id="path3396"
             inkscape:connector-curvature="0" /></g><g
           id="g3398"
           transform="translate(160.2319,76.0283)"><path
             d="m 0,0 0.24,0 0.29,0 0.949,0 c 6.475,-0.061 10.697,-9.646 16.05,-21.775 1.999,-4.52 4.058,-9.189 6.486,-13.981 10.431,-20.721 13.95,-22.729 27.144,-27.911 11.605,-4.566 20.558,-6.698 28.094,-6.698 5.374,0 10.27,1.051 15.346,3.313 2.938,1.306 23.006,13.776 25.534,16.632 1.469,1.632 2.653,8.638 3.192,14.867 l 0.012,0.092 c 0,0.093 0.018,0.144 0.184,0.664 l 0.214,0.651 0.693,0.021 c 5.535,0.122 7.78,0.184 8.687,0.224 0.052,0.358 0.092,0.879 0.113,1.102 l 0,0.184 c 0.039,0.509 0.346,0.754 0.459,0.835 0.519,0.47 1.244,0.49 1.896,0.51 0.154,0 0.306,0.022 0.438,0.022 0.203,1.896 0.43,4.572 0.325,5.348 0,0.061 -0.018,0.096 -0.049,0.122 -0.061,0.031 -0.346,0.046 -0.521,0.046 -0.174,0.015 -0.367,0.025 -0.509,0.05 -0.428,0.066 -0.713,0.307 -0.878,0.475 -0.672,0.326 -0.672,1.62 -0.285,15.255 l 0.979,-0.015 0.02,0.973 c 0.205,0 0.612,0.021 0.918,0.154 0.387,0.167 0.54,0.274 0.592,0.326 0.143,0.428 0.1,1.984 0.071,2.835 -0.011,0.418 -0.011,0.805 -0.011,1.126 0,1.688 -0.406,1.688 -0.569,1.688 l -0.113,0 c -1.194,0 -1.255,1.33 -1.296,2.126 l 0,0.036 c -1.967,0.036 -7.098,0.092 -8.525,0.128 l 0,0.01 c -0.815,0.075 -1.62,0.443 -1.734,1.32 -0.039,0.265 -0.061,0.622 -0.091,1.03 -0.276,4.012 -0.122,13.633 -0.122,14.041 0,1.8 -1.377,2.876 -2.877,3.783 -1.569,0.938 -20.27,8.811 -25.726,9.453 -1.632,0.194 -18.477,1.652 -28.011,1.652 l -67.333,0 0,-0.01 -67.373,0 c -9.536,0 -26.382,-1.458 -27.998,-1.651 -5.466,-0.637 -24.177,-8.506 -25.742,-9.444 -1.489,-0.907 -2.876,-1.988 -2.876,-3.798 0,-0.393 0.163,-10.014 -0.123,-14.036 -0.015,-0.398 -0.051,-0.755 -0.086,-1.03 -0.107,-0.867 -0.924,-1.245 -1.745,-1.32 l 0,-0.021 c -1.416,-0.015 -6.545,-0.087 -8.509,-0.107 l 0,-0.036 c -0.046,-0.796 -0.116,-2.126 -1.305,-2.126 l -0.117,0 c -0.148,0 -0.555,0 -0.555,-1.688 0,-0.321 -0.011,-0.718 -0.022,-1.136 -0.014,-0.837 -0.05,-2.382 0.072,-2.84 0.057,-0.057 0.225,-0.159 0.597,-0.322 0.29,-0.122 0.708,-0.157 0.902,-0.157 l 0.954,0 0.05,-0.944 c 0.398,-13.613 0.394,-14.929 -0.265,-15.265 -0.178,-0.179 -0.463,-0.408 -0.882,-0.465 -0.148,-0.035 -0.325,-0.035 -0.519,-0.05 -0.169,-0.011 -0.454,-0.027 -0.536,-0.062 0,-0.02 -0.026,-0.056 -0.036,-0.116 -0.096,-0.772 0.128,-3.442 0.332,-5.338 0.132,-0.022 0.29,-0.022 0.443,-0.022 0.648,-0.02 1.382,-0.04 1.896,-0.51 0.098,-0.081 0.419,-0.347 0.455,-0.857 l 0,-0.162 c 0.02,-0.244 0.055,-0.744 0.108,-1.122 0.912,-0.02 3.161,-0.082 8.697,-0.225 l 0.683,0 0.224,-0.651 c 0.159,-0.532 0.179,-0.571 0.184,-0.684 l 0.01,-0.072 c 0.53,-6.229 1.724,-13.235 3.188,-14.867 2.528,-2.864 22.591,-15.326 25.543,-16.643 5.069,-2.251 9.953,-3.302 15.332,-3.302 7.546,0 16.493,2.132 28.118,6.698 13.191,5.182 16.688,7.19 27.135,27.911 2.417,4.792 4.482,9.458 6.471,13.981 5.352,12.129 9.591,21.714 16.05,21.775 L 0,0 m 0.24,32.657 0,0 67.369,0 c 9.615,0 26.595,-1.459 28.235,-1.652 5.669,-0.673 24.606,-8.581 26.512,-9.728 1.774,-1.066 3.814,-2.656 3.814,-5.466 0,-0.107 -0.141,-9.963 0.123,-13.904 0,-0.183 0.021,-0.372 0.04,-0.53 l 0.144,0 0,-0.02 c 2.039,-0.026 8.648,-0.107 8.975,-0.107 1.099,0 1.161,-1.188 1.192,-1.887 0.008,-0.102 0.008,-0.203 0.029,-0.321 1.285,-0.26 1.949,-1.459 1.949,-3.595 0,-0.301 0.009,-0.673 0.009,-1.086 0.051,-1.916 0.062,-3.115 -0.263,-3.788 -0.245,-0.479 -0.757,-0.862 -1.593,-1.214 -0.245,-0.107 -0.499,-0.178 -0.754,-0.223 -0.122,-4.605 -0.266,-11.189 -0.184,-12.915 l 0.031,0 c 0.521,-0.016 1.296,-0.052 1.857,-0.668 0.317,-0.337 0.5,-0.755 0.561,-1.214 0.173,-1.402 -0.337,-5.975 -0.409,-6.506 l -0.041,-0.417 -0.336,-0.255 c -0.195,-0.154 -0.418,-0.204 -0.602,-0.245 l -0.041,0 c -0.029,-0.02 -0.173,-0.041 -0.284,-0.052 -0.306,-0.072 -0.634,-0.072 -0.941,-0.091 -0.14,0 -0.324,0 -0.487,-0.02 -0.092,-1.366 -0.245,-2.591 -1.366,-2.612 -0.166,0 -6.343,-0.153 -8.546,-0.203 -0.316,-3.519 -1.366,-13.114 -3.631,-15.664 -2.835,-3.181 -23.433,-15.867 -26.217,-17.111 -5.333,-2.374 -10.472,-3.476 -16.132,-3.476 -7.811,0 -16.957,2.171 -28.817,6.831 -13.472,5.293 -17.447,7.547 -28.166,28.839 -2.437,4.843 -4.618,9.758 -6.525,14.087 -5.069,11.487 -9.071,20.557 -14.281,20.614 l -0.934,0 -0.254,-0.011 -0.276,0 -0.944,0 c -5.21,-0.061 -9.222,-9.126 -14.281,-20.61 -1.917,-4.322 -4.084,-9.237 -6.516,-14.08 -10.738,-21.292 -14.698,-23.555 -28.169,-28.839 -11.86,-4.668 -21.032,-6.831 -28.833,-6.831 -5.664,0 -10.794,1.102 -16.122,3.466 -2.794,1.254 -23.398,13.94 -26.217,17.101 -2.273,2.57 -3.33,12.216 -3.641,15.673 -2.192,0.061 -8.377,0.214 -8.54,0.214 -1.116,0.021 -1.279,1.235 -1.366,2.612 -0.158,0.02 -0.357,0.02 -0.491,0.02 -0.3,0 -0.621,0.019 -0.911,0.081 -0.144,0.021 -0.286,0.042 -0.337,0.062 l -0.02,0 c -0.175,0.041 -0.408,0.091 -0.602,0.245 l -0.326,0.255 -0.046,0.417 c -0.072,0.51 -0.587,5.104 -0.409,6.506 0.052,0.459 0.251,0.872 0.567,1.209 0.56,0.6 1.331,0.657 1.846,0.673 l 0.03,0 c 0.077,1.723 -0.066,8.31 -0.188,12.915 -0.25,0.045 -0.495,0.116 -0.744,0.223 -0.837,0.352 -1.352,0.735 -1.581,1.203 -0.337,0.679 -0.337,1.883 -0.286,3.799 0.021,0.393 0.021,0.775 0.021,1.086 0,2.132 0.652,3.335 1.953,3.585 0.015,0.117 0.015,0.229 0.025,0.321 0.036,0.709 0.097,1.891 1.198,1.891 0.321,0 6.939,0.087 8.963,0.113 0.057,0 0.108,0.02 0.142,0.02 0.022,0.158 0.036,0.337 0.047,0.53 0.275,3.941 0.111,13.777 0.111,13.884 0,2.824 2.045,4.41 3.82,5.486 1.916,1.136 20.844,9.055 26.522,9.718 1.633,0.189 18.621,1.662 28.228,1.662 l 67.337,0"
             style="fill:#292929;fill-opacity:1;fill-rule:nonzero;stroke:none"
             id="path3400"
             inkscape:connector-curvature="0" /></g><g
           id="g3402"
           transform="translate(91.6812,96.5654)"><path
             d="m 0,0 c -8.842,0 -16.183,-0.245 -18.218,-0.326 -4.431,-0.158 -12.69,-3.177 -17.334,-5.797 -4.111,-2.315 -6.818,-5.557 -7.838,-9.397 -0.586,-2.228 0,-28.654 0.633,-39.396 0.545,-9.331 9.024,-13.879 20.76,-20.161 l 0.939,-0.522 c 4.528,-2.415 9.081,-3.598 13.935,-3.598 6.322,0 12.624,1.968 19.283,4.058 l 0.699,0.216 c 18.686,5.821 21.383,13.185 36.332,54.064 1.428,3.881 1.393,7.058 -0.091,9.714 -3.121,5.562 -11.91,7.749 -20.665,9.503 C 23.112,-0.565 13.286,0 0,0 m -7.123,-81.134 c -5.18,0 -10.044,1.243 -14.857,3.834 l -0.934,0.49 c -11.829,6.341 -21.185,11.348 -21.791,21.781 -0.55,9.397 -1.31,37.178 -0.565,40.004 1.151,4.37 4.19,8.035 8.759,10.605 4.946,2.778 13.45,5.869 18.222,6.046 2.045,0.073 9.412,0.327 18.289,0.327 9.351,0 21.938,-0.291 28.828,-1.678 9.177,-1.845 18.447,-4.18 21.979,-10.472 1.749,-3.124 1.825,-6.938 0.21,-11.334 C 35.787,-63.167 33.044,-70.672 13.435,-76.79 l -0.689,-0.224 c -6.822,-2.111 -13.256,-4.12 -19.869,-4.12"
             style="fill:#292929;fill-opacity:1;fill-rule:nonzero;stroke:none"
             id="path3404"
             inkscape:connector-curvature="0" /></g><path
           d="m 179.046,76.738 95.968,0 0,1.962 -95.968,0 0,-1.962 z"
           style="fill:#292929;fill-opacity:1;fill-rule:nonzero;stroke:none"
           id="path3406"
           inkscape:connector-curvature="0" /></g></g></g></svg>