<?xml version="1.0" encoding="UTF-8" standalone="no"?>
<svg
   xmlns:dc="http://purl.org/dc/elements/1.1/"
   xmlns:cc="http://creativecommons.org/ns#"
   xmlns:rdf="http://www.w3.org/1999/02/22-rdf-syntax-ns#"
   xmlns:svg="http://www.w3.org/2000/svg"
   xmlns="http://www.w3.org/2000/svg"
   xml:space="preserve"
   enable-background="new 0 0 500 54.5"
   viewBox="0 0 494.66 49.855999"
   height="49.855999"
   width="494.66"
   y="0px"
   x="0px"
   id="Layer_1"
   version="1.1"><metadata
     id="metadata3437"><rdf:RDF><cc:Work
         rdf:about=""><dc:format>image/svg+xml</dc:format><dc:type
           rdf:resource="http://purl.org/dc/dcmitype/StillImage" /><dc:title></dc:title></cc:Work></rdf:RDF></metadata><defs
     id="defs3435" /><g
     transform="translate(0.702,-1.099)"
     id="g3409"><path
       id="path3411"
       d="m 43.778,50.955 -14.08,0 -9.408,-29.504 -6.976,29.504 -14.016,0 12.48,-49.856 15.232,0 8.832,27.84 6.592,-27.84 13.824,0 -12.48,49.856 z" /><path
       id="path3413"
       d="m 60.507,50.925 -13.986,0 12.285,-49.077 13.986,0 -12.285,49.077 z" /><path
       id="path3415"
       d="m 118.988,12.939 -22.272,0 c -3.456,0 -6.294,1.302 -8.512,3.904 -1.792,2.048 -3.072,4.822 -3.84,8.32 -0.342,1.28 -0.683,2.774 -1.024,4.48 -0.256,1.408 -0.384,2.56 -0.384,3.456 l 0,0.256 c 0,1.664 0.384,2.923 1.152,3.776 1.066,1.067 5.93,1.6 14.592,1.6 l 1.664,-6.912 -12.864,0 3.008,-11.968 26.816,0 -7.808,31.104 -25.984,0 L 82.188,50.891 79.5,50.315 76.108,49.099 C 75.34,48.715 74.444,48.139 73.42,47.371 L 72.396,46.539 71.372,45.451 C 70.39,44.342 69.601,42.998 69.004,41.419 68.407,39.883 68.108,38.198 68.108,36.363 l -0.064,-1.344 c 0,-1.322 0.107,-2.837 0.32,-4.544 0.171,-1.365 0.534,-3.221 1.088,-5.568 1.152,-4.65 2.965,-8.682 5.44,-12.096 1.493,-2.261 3.178,-4.117 5.056,-5.568 1.92,-1.536 4.245,-2.965 6.976,-4.288 l 1.92,-0.704 c 0.853,-0.256 1.493,-0.426 1.92,-0.512 0.256,-0.042 0.576,-0.085 0.96,-0.128 0.298,-0.085 0.49,-0.128 0.576,-0.128 0.128,-0.042 0.405,-0.064 0.832,-0.064 0.213,0 0.469,-0.021 0.768,-0.064 0.469,-0.042 1.578,-0.064 3.328,-0.064 l 11.2,-0.128 13.568,-0.064 -3.008,11.84 z" /><path
       id="path3417"
       d="m 154.507,50.955 -13.696,0 4.8,-19.264 -13.632,0 -4.8,19.264 -13.76,0 12.48,-49.856 13.76,0 -4.608,18.624 13.632,0 4.608,-18.624 13.696,0 -12.48,49.856 z" /><path
       id="path3419"
       d="m 209.738,13.067 -14.848,0 -9.472,37.888 -14.144,0 9.472,-37.888 -14.72,0 3.008,-11.84 43.712,0 -3.008,11.84 z" /><path
       id="path3421"
       d="m 264.394,50.955 -14.976,0 -0.96,-28.608 -14.336,28.608 -14.72,0 -4.032,-49.856 14.08,0 1.536,30.016 15.168,-30.016 14.336,0 1.408,30.208 15.872,-30.208 14.208,0 -27.584,49.856 z" /><path
       id="path3423"
       d="m 307.273,50.955 -1.472,-11.008 -17.216,0 -6.72,11.008 -14.848,0 33.344,-49.856 12.8,0 8.832,49.856 -14.72,0 z m -4.672,-33.152 -6.4,10.176 7.872,0 -1.472,-10.176 z" /><path
       id="path3425"
       d="m 352.457,50.955 -15.36,0 c -3.67,0 -6.635,-0.47 -8.896,-1.408 -2.304,-0.896 -4.075,-2.282 -5.312,-4.16 -0.64,-0.896 -0.96,-2.602 -0.96,-5.12 0,-6.357 2.432,-19.413 7.296,-39.168 l 13.696,0 -6.976,27.648 -0.64,2.752 -0.64,3.136 -0.128,1.088 c 0,1.238 0.448,2.112 1.344,2.624 0.298,0.171 0.981,0.363 2.048,0.576 1.066,0.214 2.261,0.32 3.584,0.32 l 13.888,0.256 -2.944,11.456 z" /><path
       id="path3427"
       d="m 386.377,25.931 13.631,25.024 -16.703,0 -9.984,-19.264 -4.8,19.264 -13.76,0 12.48,-49.856 13.759,0 -4.544,18.176 19.329,-18.176 17.215,0 -26.623,24.832 z" /><path
       id="path3429"
       d="m 446.088,12.939 -17.408,0 c -5.248,0 -8.896,2.304 -10.944,6.912 l 26.688,0 -3.008,11.84 -26.753,0 -0.319,2.368 0,0.384 c 0,1.152 0.128,1.92 0.384,2.304 l 1.088,1.472 1.152,0.576 1.728,0.32 20.929,0 -3.009,11.84 -17.792,0 -4.224,-0.192 c -0.598,0 -1.152,-0.043 -1.664,-0.128 l -2.304,-0.512 c -4.95,-1.365 -8.192,-4.522 -9.729,-9.472 -0.725,-2.261 -1.088,-4.458 -1.088,-6.592 0,-1.877 0.256,-3.968 0.769,-6.272 0.128,-0.469 0.299,-1.109 0.512,-1.92 l 0.191,-0.768 c 0.043,-0.085 0.234,-0.682 0.576,-1.792 0.042,-0.213 0.213,-0.789 0.513,-1.728 0.469,-1.493 1.108,-3.029 1.92,-4.608 0.938,-1.834 1.812,-3.306 2.624,-4.416 0.81,-1.194 1.897,-2.517 3.264,-3.968 1.194,-1.28 2.624,-2.474 4.288,-3.584 1.365,-0.896 2.986,-1.621 4.864,-2.176 0.256,-0.128 0.874,-0.32 1.855,-0.576 l 0.704,-0.128 c 1.024,-0.256 1.834,-0.426 2.432,-0.512 1.237,-0.213 3.861,-0.341 7.872,-0.384 5.376,-0.085 11.009,-0.128 16.896,-0.128 l -3.007,11.84 z" /><path
       id="path3431"
       d="m 493.768,15.179 c -0.043,0.683 -0.235,1.515 -0.576,2.496 -0.427,1.707 -1.024,3.307 -1.792,4.8 -0.641,1.323 -1.536,2.603 -2.688,3.84 -1.237,1.28 -2.368,2.262 -3.392,2.944 -0.342,0.256 -0.896,0.555 -1.664,0.896 -0.939,0.427 -1.664,0.747 -2.176,0.96 l 6.784,19.84 -14.912,0 -5.696,-17.984 -8.384,0 -4.48,17.984 -13.76,0 12.48,-49.856 25.279,0 3.648,0.192 2.111,0.32 c 0.427,0 0.704,0.022 0.832,0.064 0.214,0.043 0.726,0.171 1.536,0.384 3.242,0.811 5.354,2.88 6.336,6.208 0.47,1.408 0.704,2.859 0.704,4.352 l -0.19,2.56 z m -13.953,-1.216 c -0.171,-0.17 -0.79,-0.362 -1.856,-0.576 l -3.456,-0.192 -10.304,0 -1.856,7.808 9.28,0 c 3.157,0 5.205,-0.384 6.145,-1.152 0.896,-0.682 1.6,-1.792 2.111,-3.328 l 0.192,-1.408 c 0,-0.554 -0.086,-0.938 -0.256,-1.152 z" /></g></svg>